<svg width="21" height="35" viewBox="0 0 21 35" fill="none" xmlns="http://www.w3.org/2000/svg">
<path fill-rule="evenodd" clip-rule="evenodd" d="M6.47585 25.4282C5.08585 25.1053 3.79006 24.6386 2.55851 24.0048C2.11744 23.777 1.68323 23.5329 1.26186 23.2708C0.0191661 22.4949 -0.36709 20.8942 0.379724 19.6627C1.14795 18.3977 2.74007 17.9866 4.01102 18.7574C5.26142 19.5136 6.58633 20.0635 8.026 20.323C10.8591 20.8317 13.5209 20.3632 16.0012 18.9047C16.5073 18.6067 17.0186 18.3729 17.6224 18.3763C18.7931 18.3831 19.8183 19.1325 20.1583 20.2468C20.5 21.3695 20.0744 22.5848 19.0801 23.2246C17.5308 24.2215 15.853 24.9238 14.0665 25.364C13.9894 25.382 13.914 25.4042 13.8061 25.4325C13.8789 25.5113 13.9354 25.5729 13.9954 25.6329C15.5832 27.2207 17.1719 28.806 18.758 30.3964C19.6856 31.3265 19.8808 32.6026 19.265 33.6663C18.3786 35.1984 16.3403 35.4528 15.0634 34.1836C13.4807 32.6094 11.9065 31.0285 10.3298 29.4518C10.2733 29.3952 10.2202 29.3344 10.0943 29.1974C10.0421 29.2907 10.0138 29.3815 9.95556 29.4398C8.37543 31.0259 6.7953 32.6094 5.20832 34.1887C4.11979 35.2747 2.45744 35.2678 1.40402 34.1853C0.440531 33.1952 0.413128 31.6228 1.34493 30.584C1.47083 30.4418 1.60786 30.3082 1.74146 30.1737C3.25736 28.657 4.7724 27.1428 6.28829 25.6252C6.34054 25.5721 6.39449 25.513 6.47585 25.4282Z" fill="white"/>
<path fill-rule="evenodd" clip-rule="evenodd" d="M10.142 0C15.1136 0 19.1697 4.05781 19.1689 9.02943C19.168 14.007 15.1504 18.0589 10.1454 18.0606C5.11214 18.0657 1.11514 14.0079 1.10744 9.04656C1.09887 4.06808 5.1267 0.013703 10.142 0ZM13.8735 9.03799C13.8752 6.98083 12.2112 5.30306 10.1643 5.29793C8.08997 5.29279 6.40022 6.95599 6.3968 9.00459C6.39337 11.0566 8.05743 12.7652 10.0658 12.7669C12.194 12.7686 13.8718 11.126 13.8735 9.03799Z" fill="white"/>
</svg>
