<svg width="30" height="30" viewBox="0 0 30 30" fill="none" xmlns="http://www.w3.org/2000/svg">
<path d="M19.0176 15.2923L27.333 20.5492V9.81348L19.0176 15.2923Z" fill="#EE7430"/>
<path d="M2.66602 9.81348V20.5492L10.9814 15.2923L2.66602 9.81348Z" fill="#EE7430"/>
<path d="M25.7907 6.6875H4.20825C3.43899 6.6875 2.82851 7.26098 2.71289 7.99941L14.9995 16.0944L27.2861 7.99941C27.1705 7.26098 26.56 6.6875 25.7907 6.6875Z" fill="#EE7430"/>
<path d="M17.6037 16.2242L15.4223 17.661C15.2928 17.7458 15.1464 17.7874 14.9984 17.7874C14.8504 17.7874 14.7039 17.7458 14.5744 17.661L12.393 16.2227L2.71484 22.3444C2.83355 23.0766 3.44094 23.6455 4.20712 23.6455H25.7896C26.5558 23.6455 27.1632 23.0766 27.2819 22.3444L17.6037 16.2242Z" fill="#EE7430"/>
</svg>
