<svg width="22" height="30" viewBox="0 0 22 30" fill="none" xmlns="http://www.w3.org/2000/svg">
<path d="M0.800781 11.9996C0.800781 19.7882 10.1866 28.8512 10.5862 29.2334L11.0008 29.6294L11.4154 29.2328C11.815 28.8512 21.2008 19.7882 21.2008 11.9996C21.2008 6.74061 18.5296 0.599609 11.0008 0.599609C3.47198 0.599609 0.800781 6.74061 0.800781 11.9996Z" fill="#EE7430"/>
<path d="M5 10.1992C5 13.5076 7.6916 16.1992 11 16.1992C14.3084 16.1992 17 13.5076 17 10.1992C17 6.89082 14.3084 4.19922 11 4.19922C7.6916 4.19922 5 6.89082 5 10.1992ZM11 10.1992C8.3534 10.1992 6.2 10.1992 6.2 10.1992C6.33174 10.1992 8.3534 10.1992 11 10.1992Z" fill="white"/>
</svg>
