<svg width="18" height="18" viewBox="0 0 18 18" fill="none" xmlns="http://www.w3.org/2000/svg">
<path d="M14.5301 17.7969C13.8433 17.5809 13.5409 17.5118 13.2342 17.3908C7.35082 14.9243 3.07004 10.8465 0.685595 4.85949C0.494123 4.4103 0.406521 3.92369 0.42932 3.43593C0.452119 2.94817 0.584731 2.47185 0.81727 2.04249C1.04981 1.61312 1.37627 1.24179 1.77232 0.956178C2.16837 0.670566 2.62378 0.478043 3.1046 0.392964C3.38538 0.332488 3.84326 0.328168 3.96853 0.492315C5.07257 1.80789 6.10087 3.1852 7.04845 4.61759C7.21691 4.88972 6.75471 5.80981 6.34434 6.1381C5.40698 6.8854 5.32922 7.75797 5.95125 8.56143C6.8217 9.6931 7.80757 10.7311 8.89294 11.6586C9.84326 12.4664 10.8152 12.5917 11.8044 11.3865C12.7936 10.1813 13.9037 10.6478 16.556 12.8249C17.6532 13.7234 17.934 14.6608 16.988 15.6975C16.2159 16.4507 15.3948 17.1521 14.5301 17.7969Z" fill="#4D4D4D"/>
<path d="M17.3247 8.30216L16.815 9.20928C16.5354 8.85231 16.3152 8.45267 16.1627 8.0257C15.4067 3.72332 13.9165 2.20712 9.54929 1.34319C9.21668 1.27408 8.94454 0.945786 8.64648 0.738442C8.97478 0.561336 9.29443 0.250321 9.63137 0.224403C13.437 -0.0563742 17.2815 3.79676 17.3247 8.30216Z" fill="#4D4D4D"/>
<path d="M15.3341 7.66307L14.6948 8.39742C14.4918 8.0864 14.1462 7.79266 14.1073 7.46437C13.8611 5.14471 12.5954 3.85314 10.3103 3.43845C9.94749 3.37366 9.64511 2.96761 9.3125 2.72139C9.74447 2.56156 10.1764 2.22463 10.5695 2.28942C11.8803 2.45495 13.0863 3.09125 13.9628 4.07983C14.8393 5.06841 15.3267 6.34188 15.3341 7.66307Z" fill="#4D4D4D"/>
<path d="M13.2944 7.08404L12.8624 7.71903C12.6205 7.51169 12.37 7.32162 12.1497 7.10132C11.6054 6.56136 11.0741 6.01709 10.5471 5.46417C10.3225 5.23091 10.1151 4.97605 9.91211 4.72983C10.2102 4.57432 10.5039 4.29787 10.802 4.29787C12.0071 4.26763 13.2858 5.60672 13.2944 7.08404Z" fill="#4D4D4D"/>
</svg>
