<svg width="20" height="16" viewBox="0 0 20 16" fill="none" xmlns="http://www.w3.org/2000/svg">
<path d="M19.1083 1.32395C19.0472 1.794 18.9577 2.25993 18.8405 2.7192L16.3264 14.5982C16.2909 14.8287 16.2149 15.051 16.1018 15.2548C16.0247 15.4086 15.8957 15.5303 15.7376 15.5982C15.5796 15.6662 15.4026 15.6761 15.2379 15.6263C15.004 15.5687 14.7848 15.4627 14.5942 15.3153C13.3286 14.3736 12.0586 13.4449 10.7973 12.4989C10.7723 12.4707 10.7413 12.4486 10.7065 12.4343C10.6717 12.42 10.6341 12.4139 10.5965 12.4164C10.559 12.4189 10.5225 12.43 10.4899 12.4488C10.4573 12.4676 10.4295 12.4936 10.4085 12.5248C9.78647 13.1468 9.15148 13.7516 8.52945 14.365C8.42101 14.4856 8.28746 14.5809 8.1382 14.6444C7.98894 14.7078 7.8276 14.7378 7.66552 14.7322C7.56013 14.7406 7.45532 14.71 7.37093 14.6464C7.28654 14.5827 7.22844 14.4902 7.20763 14.3866C6.81886 13.1684 6.42146 11.9546 6.02405 10.7365C5.89014 10.3045 5.75191 9.91142 5.62664 9.49674C5.61103 9.42986 5.57677 9.36879 5.52783 9.32062C5.47889 9.27245 5.41729 9.23915 5.35018 9.2246C4.11476 8.84447 2.87934 8.4557 1.6396 8.06693C1.47477 8.02317 1.31645 7.95781 1.16876 7.87255C1.08589 7.84802 1.01229 7.79921 0.957461 7.73242C0.902631 7.66562 0.869095 7.58392 0.861188 7.49787C0.85328 7.41182 0.871364 7.32537 0.913103 7.2497C0.954842 7.17404 1.01832 7.11263 1.09532 7.07341C1.30955 6.89365 1.55575 6.7559 1.82102 6.66736L6.87934 4.71488L17.8037 0.503218L17.8901 0.468661C18.5813 0.192203 19.104 0.550734 19.1083 1.32395ZM7.6828 13.5486C7.75191 13.514 7.74327 13.4708 7.74759 13.4363C7.82966 12.5464 7.91606 11.6609 7.98949 10.771C7.99286 10.668 8.01764 10.5667 8.06226 10.4738C8.10688 10.3808 8.17037 10.2982 8.24867 10.2311C10.6187 8.10293 12.9873 5.96758 15.3545 3.82503C15.5057 3.69112 15.6569 3.55721 15.7865 3.41898C15.8469 3.35851 15.9247 3.29371 15.8772 3.19868C15.8297 3.10365 15.726 3.10365 15.631 3.11661C15.4551 3.14676 15.2882 3.21615 15.1428 3.31963C12.2343 5.16556 9.3185 7.00718 6.39554 8.84447C6.36107 8.85914 6.33006 8.88089 6.30451 8.90829C6.27897 8.9357 6.25946 8.96816 6.24725 9.00358C6.23504 9.039 6.23039 9.07659 6.23361 9.11392C6.23683 9.15124 6.24785 9.18748 6.26595 9.22028C6.6288 10.3045 6.97869 11.3801 7.3329 12.473C7.46249 12.8272 7.57912 13.1857 7.6828 13.5486Z" fill="#4D4D4D"/>
</svg>
