<svg width="41" height="33" viewBox="0 0 41 33" fill="none" xmlns="http://www.w3.org/2000/svg">
<path d="M40.2754 3.84834C38.8041 4.50075 37.2214 4.94201 35.5617 5.13908C37.2563 4.12375 38.5569 2.51721 39.1707 0.599773C37.585 1.54044 35.8279 2.22284 33.9594 2.59066C32.4624 0.99636 30.3296 0 27.9678 0C23.4364 0 19.7613 3.67514 19.7613 8.2065C19.7613 8.84972 19.8341 9.47581 19.9749 10.0768C13.1546 9.73469 7.1073 6.46776 3.05944 1.50127C2.35318 2.71306 1.94802 4.12375 1.94802 5.62747C1.94802 8.47394 3.39788 10.9869 5.59869 12.4582C4.25409 12.4159 2.98784 12.0469 1.88193 11.4306C1.88131 11.4655 1.88131 11.5004 1.88131 11.5346C1.88131 15.5109 4.71127 18.8274 8.46475 19.5808C7.77684 19.7693 7.05038 19.869 6.30311 19.869C5.77311 19.869 5.25963 19.8182 4.759 19.7228C5.8031 22.9823 8.83318 25.3551 12.4251 25.4218C9.61595 27.6233 6.07789 28.9348 2.232 28.9348C1.57102 28.9348 0.916169 28.8962 0.275391 28.8197C3.90524 31.1491 8.21994 32.5071 12.8541 32.5071C27.9488 32.5071 36.2037 20.0025 36.2037 9.15695C36.2037 8.80137 36.1957 8.44702 36.1798 8.09572C37.7845 6.93901 39.1756 5.49405 40.2754 3.84834Z" fill="white"/>
</svg>
