<svg width="40" height="23" viewBox="0 0 40 23" fill="none" xmlns="http://www.w3.org/2000/svg">
<path fill-rule="evenodd" clip-rule="evenodd" d="M19.5704 22.7238H21.9614C21.9614 22.7238 22.6836 22.6445 23.0523 22.2471C23.3917 21.8821 23.3808 21.1968 23.3808 21.1968C23.3808 21.1968 23.3342 17.9886 24.8231 17.5162C26.2909 17.0508 28.1758 20.6169 30.1736 21.988C31.6843 23.0258 32.8322 22.7982 32.8322 22.7982L38.174 22.7238C38.174 22.7238 40.9684 22.5517 39.6434 20.3546C39.5348 20.1749 38.8718 18.7293 35.6717 15.759C32.3223 12.6501 32.7709 13.153 36.8056 7.77537C39.2628 4.50037 40.2451 2.50094 39.9383 1.64459C39.6456 0.828958 37.8384 1.04454 37.8384 1.04454L31.8238 1.08201C31.8238 1.08201 31.378 1.02119 31.0473 1.21885C30.7242 1.41271 30.5162 1.86451 30.5162 1.86451C30.5162 1.86451 29.5643 4.39882 28.2947 6.5541C25.6165 11.102 24.5456 11.342 24.108 11.0596C23.0898 10.4014 23.3439 8.4156 23.3439 7.00481C23.3439 2.5976 24.0124 0.759995 22.0423 0.284303C21.3885 0.126282 20.9074 0.0220205 19.2354 0.0051866C17.0893 -0.0170775 15.2729 0.0117022 14.2444 0.515632C13.5602 0.85068 13.0324 1.59734 13.3538 1.64024C13.7513 1.69346 14.6517 1.88298 15.129 2.53298C15.7453 3.37141 15.7236 5.25463 15.7236 5.25463C15.7236 5.25463 16.0777 10.4427 14.8966 11.0873C14.0858 11.5293 12.9737 10.6268 10.586 6.50088C9.36259 4.38742 8.4389 2.05131 8.4389 2.05131C8.4389 2.05131 8.26079 1.61472 7.94312 1.38122C7.55757 1.0983 7.01889 1.00816 7.01889 1.00816L1.30352 1.04563C1.30352 1.04563 0.445537 1.06952 0.130581 1.44258C-0.149622 1.77437 0.108316 2.46076 0.108316 2.46076C0.108316 2.46076 4.58286 12.9292 9.64931 18.2048C14.2949 23.0415 19.5704 22.7238 19.5704 22.7238Z" fill="white"/>
</svg>
