<svg width="18" height="18" viewBox="0 0 18 18" fill="none" xmlns="http://www.w3.org/2000/svg">
<path fill-rule="evenodd" clip-rule="evenodd" d="M17.2401 8.58308C17.1775 6.49168 16.3077 4.50573 14.8128 3.0417C13.318 1.57768 11.3144 0.749309 9.22215 0.730314C7.12991 0.711319 5.11157 1.50317 3.59042 2.93982C2.06927 4.37646 1.16346 6.34629 1.06297 8.43621C1.06297 8.55284 1.06297 8.66947 1.06297 8.7861C1.0573 10.2485 1.45326 11.6845 2.20768 12.9373L0.751953 17.2569L5.23144 15.8228C6.46093 16.4986 7.84472 16.8437 9.24753 16.8245C10.6503 16.8054 12.0242 16.4225 13.2347 15.7134C14.4453 15.0043 15.4511 13.9932 16.154 12.779C16.8568 11.5648 17.2325 10.189 17.2444 8.7861C17.2444 8.71698 17.2444 8.65219 17.2401 8.58308ZM9.14936 15.542C7.81828 15.5445 6.51586 15.1554 5.40422 14.4232L2.81243 15.2569L3.67636 12.7472C2.8348 11.5979 2.38092 10.2106 2.38046 8.7861C2.38046 8.5658 2.38046 8.35413 2.41502 8.12951C2.58992 6.44341 3.38758 4.88322 4.65196 3.75412C5.91634 2.62502 7.55648 2.00825 9.25154 2.02445C10.9466 2.04066 12.5747 2.68868 13.8172 3.84174C15.0598 4.99481 15.8275 6.56997 15.9701 8.2591C15.9701 8.43621 15.996 8.60899 15.996 8.7861C15.9921 9.67984 15.8116 10.564 15.465 11.3878C15.1184 12.2116 14.6125 12.9588 13.9764 13.5866C13.3402 14.2143 12.5863 14.7102 11.7579 15.0458C10.9296 15.3814 10.0431 15.55 9.14936 15.542Z" fill="#4D4D4D"/>
<path fill-rule="evenodd" clip-rule="evenodd" d="M12.861 10.4144C12.658 10.3151 11.686 9.8356 11.5046 9.77081C11.3232 9.70601 11.1893 9.67578 11.0726 9.87016C10.956 10.0645 10.5413 10.5095 10.4161 10.6347C10.2908 10.76 10.1828 10.7859 9.98409 10.6866C9.39766 10.4566 8.85656 10.1246 8.38582 9.70601C7.95164 9.31106 7.5802 8.85222 7.28431 8.34532C7.172 8.15094 7.28431 8.04295 7.3707 7.94359C7.4571 7.84424 7.56941 7.71465 7.66876 7.60234C7.69488 7.57197 7.71939 7.54025 7.74219 7.50731C7.79005 7.43149 7.83193 7.35205 7.86746 7.26973C7.89658 7.21679 7.91184 7.15736 7.91184 7.09694C7.91184 7.03653 7.89658 6.97709 7.86746 6.92416C7.81563 6.82912 7.4355 5.8572 7.24975 5.46411C7.06401 5.07102 6.92146 5.13582 6.81779 5.13582C6.71411 5.13582 6.57157 5.13582 6.43766 5.13582C6.33685 5.1377 6.23754 5.16056 6.14606 5.20296C6.05458 5.24535 5.97294 5.30634 5.90634 5.38204C5.68311 5.59329 5.50635 5.84874 5.38736 6.13211C5.26836 6.41548 5.20972 6.72054 5.21519 7.02783C5.21729 7.25484 5.25221 7.48036 5.31887 7.69737C5.4724 8.1907 5.71226 8.65287 6.02729 9.06238C6.12232 9.19197 7.39662 11.2438 9.4139 12.0386C11.4312 12.8334 11.4355 12.5613 11.7983 12.5267C12.0749 12.4749 12.3371 12.3644 12.5673 12.2027C12.7976 12.041 12.9905 11.8319 13.1331 11.5894C13.264 11.2954 13.306 10.9696 13.2541 10.652C13.1893 10.557 13.0597 10.5095 12.861 10.4144Z" fill="#4D4D4D"/>
</svg>
