<svg width="0" height="0" class="hidden">
  <symbol  xmlns="http://www.w3.org/2000/svg" viewBox="0 0 18 18" id="whatsapp">
    <path fill-rule="evenodd" clip-rule="evenodd" d="M17.24 8.583a8.095 8.095 0 00-16.177-.147v.35a7.987 7.987 0 001.145 4.151l-1.456 4.32 4.48-1.434a8.107 8.107 0 0012.012-7.037c0-.069 0-.134-.004-.203zm-8.09 6.959a6.785 6.785 0 01-3.746-1.119l-2.592.834.864-2.51a6.708 6.708 0 01-1.296-3.96c0-.221 0-.433.035-.657a6.808 6.808 0 0113.555.13c0 .176.026.349.026.526a6.785 6.785 0 01-6.847 6.756z" ></path>
    <path fill-rule="evenodd" clip-rule="evenodd" d="M12.861 10.414c-.203-.099-1.175-.578-1.356-.643-.182-.065-.316-.095-.432.1-.117.194-.532.638-.657.764-.125.125-.233.15-.432.052a5.339 5.339 0 01-1.598-.981 5.775 5.775 0 01-1.102-1.36c-.112-.195 0-.303.087-.402.086-.1.198-.23.298-.342a1.138 1.138 0 00.198-.332.358.358 0 000-.346c-.051-.095-.431-1.067-.617-1.46s-.329-.328-.432-.328h-.38a.726.726 0 00-.532.246 2.212 2.212 0 00-.69 1.646c.001.227.036.452.103.67.153.493.393.955.708 1.364.095.13 1.37 2.182 3.387 2.977 2.017.794 2.021.522 2.384.488a1.968 1.968 0 001.335-.938c.131-.294.173-.62.121-.937-.065-.095-.194-.143-.393-.238z" ></path>
  </symbol>
   <symbol  xmlns="http://www.w3.org/2000/svg" viewBox="0 0 18 18" id="phone">
    <path d="M14.53 17.797c-.687-.216-.99-.285-1.296-.406C7.351 14.924 3.07 10.847.686 4.859A3.244 3.244 0 013.105.393c.28-.06.738-.065.864.1a45.283 45.283 0 013.08 4.125c.168.272-.294 1.192-.705 1.52-.937.747-1.015 1.62-.393 2.423a20.572 20.572 0 002.942 3.098c.95.807 1.922.933 2.911-.273.99-1.205 2.1-.738 4.752 1.439 1.097.898 1.378 1.836.432 2.873a24.457 24.457 0 01-2.458 2.099zm2.795-9.495l-.51.907c-.28-.357-.5-.756-.652-1.183-.756-4.303-2.247-5.819-6.614-6.683-.332-.069-.604-.397-.903-.605.329-.177.648-.488.985-.514 3.806-.28 7.65 3.573 7.694 8.078z" ></path>
    <path d="M15.334 7.663l-.64.734c-.202-.31-.548-.604-.587-.933-.246-2.32-1.512-3.61-3.797-4.026-.363-.064-.665-.47-.998-.717.432-.16.864-.496 1.258-.432a5.447 5.447 0 014.764 5.374z" ></path>
    <path d="M13.294 7.084l-.432.635c-.242-.207-.492-.397-.712-.618a81.649 81.649 0 01-1.603-1.637c-.225-.233-.432-.488-.635-.734.298-.156.592-.432.89-.432 1.205-.03 2.484 1.309 2.492 2.786z" ></path>
  </symbol>
   <symbol xmlns="http://www.w3.org/2000/svg" viewBox="0 0 20 16" id="telegram">
    <path d="M19.108 1.324c-.06.47-.15.936-.268 1.395L16.326 14.6c-.035.23-.111.452-.224.656a.73.73 0 01-.864.371 1.727 1.727 0 01-.644-.31c-1.265-.942-2.535-1.871-3.797-2.817a.247.247 0 00-.389.026c-.622.622-1.257 1.227-1.879 1.84a1.11 1.11 0 01-.863.367.432.432 0 01-.458-.345c-.39-1.219-.787-2.432-1.184-3.65-.134-.432-.272-.826-.397-1.24a.363.363 0 00-.277-.272c-1.235-.38-2.47-.77-3.71-1.158a1.935 1.935 0 01-.471-.194.432.432 0 01-.074-.8c.215-.18.46-.317.726-.406l5.058-1.952L17.804.503 17.89.47c.691-.277 1.214.082 1.218.855zM7.683 13.549c.069-.035.06-.078.065-.113.082-.89.168-1.775.241-2.665a.743.743 0 01.26-.54c2.37-2.128 4.738-4.263 7.105-6.406.152-.134.303-.268.433-.406.06-.06.138-.125.09-.22-.047-.095-.151-.095-.246-.082-.176.03-.343.1-.488.203a2374.404 2374.404 0 01-8.747 5.524.268.268 0 00-.13.376c.363 1.085.713 2.16 1.067 3.253.13.354.246.713.35 1.076z" ></path>
  </symbol>
    <symbol xmlns="http://www.w3.org/2000/svg" viewBox="0 0 22 30" id="geo">
    <path d="M.8 12c0 7.788 9.387 16.851 9.786 17.233l.415.396.414-.396c.4-.382 9.786-9.445 9.786-17.233C21.2 6.74 18.53.6 11 .6S.8 6.74.8 12z" ></path>
    <path d="M5 10.2c0 3.308 2.692 6 6 6s6-2.692 6-6c0-3.31-2.692-6-6-6s-6 2.69-6 6zm6 0H6.2 11z" fill="white"></path>
  </symbol>
   <symbol  xmlns="http://www.w3.org/2000/svg" viewBox="0 0 30 30" id="email">
    <path d="M19.018 15.292l8.315 5.257V9.813l-8.315 5.48zM2.666 9.813V20.55l8.315-5.257-8.315-5.479zM25.79 6.688H4.209c-.769 0-1.38.573-1.495 1.311L15 16.094 27.285 8c-.116-.738-.726-1.311-1.495-1.311zm-8.186 9.536l-2.182 1.437a.77.77 0 01-.848 0l-2.181-1.438-9.678 6.121c.119.733.726 1.301 1.492 1.301H25.79c.766 0 1.373-.568 1.492-1.3l-9.678-6.12z" ></path>
  </symbol>
    <symbol xmlns="http://www.w3.org/2000/svg" viewBox="0 0 30 30" id="telephone">
    <path d="M8.281 13.494a18.825 18.825 0 008.238 8.231l2.75-2.756a1.254 1.254 0 011.269-.306c1.4.462 2.906.712 4.462.712.694 0 1.25.556 1.25 1.25V25c0 .694-.556 1.25-1.25 1.25C13.262 26.25 3.75 16.738 3.75 5c0-.694.563-1.25 1.25-1.25h4.375c.694 0 1.25.556 1.25 1.25 0 1.556.25 3.063.713 4.463.137.43.037.925-.307 1.268l-2.75 2.763z"></path>
  </symbol>
    <symbol  xmlns="http://www.w3.org/2000/svg" viewBox="0 0 40 23" id="vk">
    <path fill-rule="evenodd" clip-rule="evenodd" d="M19.57 22.724h2.391s.723-.08 1.091-.477c.34-.365.329-1.05.329-1.05s-.047-3.208 1.442-3.68c1.468-.466 3.353 3.1 5.35 4.471 1.511 1.038 2.66.81 2.66.81l5.341-.074s2.794-.172 1.47-2.37c-.11-.18-.772-1.625-3.972-4.595-3.35-3.109-2.901-2.606 1.134-7.984 2.457-3.275 3.44-5.274 3.132-6.13-.292-.816-2.1-.6-2.1-.6l-6.014.037s-.446-.06-.777.137c-.323.194-.53.646-.53.646s-.953 2.534-2.222 4.69c-2.679 4.547-3.75 4.787-4.187 4.505-1.018-.659-.764-2.644-.764-4.055 0-4.407.668-6.245-1.302-6.72-.654-.159-1.135-.263-2.807-.28-2.146-.022-3.962.007-4.99.51-.685.336-1.213 1.082-.891 1.125.397.053 1.298.243 1.775.893.616.838.595 2.722.595 2.722s.354 5.188-.827 5.832c-.811.442-1.923-.46-4.311-4.586-1.223-2.114-2.147-4.45-2.147-4.45s-.178-.436-.496-.67c-.385-.283-.924-.373-.924-.373l-5.715.038S.446 1.07.13 1.443C-.15 1.774.108 2.46.108 2.46S4.583 12.929 9.65 18.205c4.646 4.837 9.921 4.519 9.921 4.519z" ></path>
  </symbol>
  <symbol  xmlns="http://www.w3.org/2000/svg" viewBox="0 0 21 35" id="classmate">
    <path fill-rule="evenodd" clip-rule="evenodd" d="M6.476 25.428a16.784 16.784 0 01-3.917-1.423 18.716 18.716 0 01-1.297-.734c-1.243-.776-1.63-2.377-.882-3.608.768-1.265 2.36-1.676 3.631-.906 1.25.757 2.575 1.306 4.015 1.566 2.833.509 5.495.04 7.975-1.418.506-.298 1.018-.532 1.621-.529a2.65 2.65 0 012.536 1.87 2.62 2.62 0 01-1.078 2.979 16.48 16.48 0 01-5.013 2.139c-.078.018-.153.04-.26.069.072.078.128.14.188.2 1.588 1.588 3.177 3.173 4.763 4.763.928.93 1.123 2.207.507 3.27-.886 1.532-2.925 1.787-4.202.518-1.582-1.575-3.157-3.155-4.733-4.732-.057-.057-.11-.118-.236-.255-.052.094-.08.184-.138.243-1.58 1.586-3.16 3.17-4.748 4.749-1.088 1.086-2.75 1.079-3.804-.004a2.636 2.636 0 01-.06-3.601c.127-.142.264-.276.397-.41l4.547-4.549c.053-.053.106-.112.188-.197zM10.142 0c4.972 0 9.028 4.058 9.027 9.03-.001 4.977-4.019 9.029-9.024 9.03a9.012 9.012 0 01-9.038-9.013C1.1 4.068 5.127.014 10.142 0zm3.732 9.038c.001-2.057-1.663-3.735-3.71-3.74C8.09 5.293 6.4 6.956 6.397 9.005c-.004 2.052 1.66 3.76 3.669 3.762 2.128.002 3.806-1.641 3.807-3.729z"></path>
  </symbol>
   <symbol  xmlns="http://www.w3.org/2000/svg" viewBox="0 0 41 33" id="twitter">
    <path d="M40.275 3.848a16.374 16.374 0 01-4.713 1.291A8.229 8.229 0 0039.17.6a16.428 16.428 0 01-5.212 1.992A8.198 8.198 0 0027.968 0a8.208 8.208 0 00-7.993 10.077C13.155 9.735 7.107 6.467 3.059 1.5a8.171 8.171 0 00-1.111 4.126c0 2.847 1.45 5.36 3.65 6.831a8.15 8.15 0 01-3.716-1.027v.104a8.211 8.211 0 006.583 8.046 8.221 8.221 0 01-3.706.142 8.215 8.215 0 007.666 5.699 16.465 16.465 0 01-10.193 3.513c-.661 0-1.316-.039-1.957-.115a23.212 23.212 0 0012.58 3.687c15.094 0 23.349-12.504 23.349-23.35 0-.356-.008-.71-.024-1.061a16.642 16.642 0 004.095-4.248z"></path>
  </symbol>
   <symbol  xmlns="http://www.w3.org/2000/svg" viewBox="0 0 17 35" id="facebook">
    <path d="M15.761 17.466h-4.786V35h-7.25V17.466H.274v-6.162h3.45V7.317C3.724 4.465 5.078 0 11.04 0l5.371.022v5.982h-3.897c-.64 0-1.538.32-1.538 1.68v3.626h5.419l-.634 6.156z" ></path>
  </symbol>
</svg>