<svg width="160" height="60" viewBox="0 0 160 60" fill="none" xmlns="http://www.w3.org/2000/svg">
<path fill-rule="evenodd" clip-rule="evenodd" d="M8.81426 59.8915C8.54233 59.8915 8.27041 59.789 7.99849 59.6351C7.78095 59.43 7.72656 59.2249 7.72656 58.866V53.3794C7.72656 52.9179 7.83533 52.6102 8.05287 52.3538C8.32479 52.0974 8.6511 51.7898 9.14056 51.5334L40.0854 31.8431C40.3574 31.638 40.3574 31.4329 40.0854 31.2278L27.7945 23.485C26.7068 22.921 26.4893 22.0493 27.6857 21.3314L31.2751 19.0752C32.6347 18.2035 32.7979 18.3573 34.1575 19.2803L49.0589 28.5101C49.6027 28.8178 49.9834 29.228 50.201 29.4844C50.4185 29.7408 50.5273 30.151 50.5273 30.6125V32.4584C50.5273 32.9199 50.4185 33.2789 50.201 33.6378C49.9291 33.9455 49.5484 34.3044 49.0589 34.6121L9.63003 59.7377C9.30372 59.789 9.08618 59.8915 8.81426 59.8915Z" fill="#277E89"/>
<path d="M41.713 0.0522461C41.985 0.0522461 42.2569 0.1548 42.5288 0.30863C42.7463 0.513737 42.8007 0.718844 42.8007 1.07778V6.5644C42.8007 7.02589 42.692 7.33355 42.4744 7.58993C42.2025 7.84632 41.8762 8.15398 41.3867 8.41036L9.89801 28.4596L10.3875 28.1519C10.1155 28.357 10.1155 28.5621 10.3331 28.7672L22.7872 36.4588C23.8749 37.0228 24.0924 37.8945 22.8959 38.6124L19.3066 40.8686C17.9469 41.7403 17.7838 41.5864 16.4242 40.6635L1.46839 31.4849C0.924539 31.1772 0.543846 30.767 0.326308 30.5107C0.108769 30.2543 0 29.8441 0 29.3826V27.5366C0 27.0751 0.108769 26.7162 0.326308 26.3572C0.543846 25.9983 0.978924 25.6906 1.46839 25.383L40.8973 0.257353C41.2236 0.154799 41.4955 0.0522461 41.713 0.0522461Z" fill="#EE7430"/>
<path fill-rule="evenodd" clip-rule="evenodd" d="M26.1611 33.5857L20.3963 29.9963C20.1788 29.8938 20.0157 29.74 19.9069 29.5348C19.4718 28.8682 19.635 28.0478 20.2876 27.5863L22.7893 25.9967C23.2787 25.6891 23.9857 25.6378 24.5296 25.9455L30.1312 29.5348C30.2944 29.6374 30.4031 29.7912 30.5663 29.8938C31.0557 30.5091 30.8926 31.3808 30.24 31.8423L27.847 33.4832C27.3576 33.8934 26.705 33.8934 26.1611 33.5857Z" fill="#277E89"/>
<path fill-rule="evenodd" clip-rule="evenodd" d="M54.7109 21.4337H56.7232C58.4091 21.4337 59.1705 21.2286 59.9319 20.7671C60.6932 20.3056 61.0196 19.5364 61.0196 18.5109V14.2549H65.5335C67.165 14.2549 68.3071 14.0498 69.0685 13.5883C69.7755 13.1269 70.1562 12.3577 70.1562 11.3322V0.15383H59.0073C57.3758 0.15383 56.6144 0.358938 55.853 0.820429C55.146 1.28192 54.7653 2.05107 54.7653 3.07661L54.7109 21.4337ZM60.9652 11.0245V3.17916H62.6511C62.9774 3.17916 63.2493 3.23044 63.5212 3.38427C63.7932 3.5381 63.9563 3.84576 63.9563 4.25597V9.94769C63.9563 10.3579 63.7932 10.6143 63.5212 10.8194C63.3037 10.9732 62.9774 11.0245 62.7599 11.0245H60.9652ZM75.1052 21.4337H85.6014C86.5803 21.4337 87.3961 21.2799 87.9943 20.8696C88.5926 20.4594 88.9189 19.1262 88.8645 18.3058H81.305V11.7937H85.2751C86.254 11.7937 87.0698 11.5885 87.668 11.2296C88.2663 10.8194 88.5926 9.4862 88.5382 8.66578H81.305V3.23044H85.2751C86.3084 3.23044 87.0698 3.02533 87.7224 2.66639C88.3207 2.25618 88.647 0.922982 88.5926 0.102553H79.7279C78.0963 0.102553 76.8999 0.307661 76.1929 0.769152C75.4859 1.23064 75.1052 1.99979 75.1052 3.02533V21.4337ZM92.7802 21.4337H94.3573C95.9889 21.4337 97.1853 21.2286 97.8923 20.7671C98.5993 20.3056 98.98 19.5364 98.98 18.5109V11.6398H99.6327L102.515 21.485H103.44C104.745 21.485 105.724 21.3824 106.376 21.126C107.029 20.9209 107.518 20.6133 107.845 20.3056C108.171 19.9467 108.28 19.6903 108.225 19.3313C108.225 18.9724 108.171 18.716 108.117 18.4596L105.18 10.3066L108.606 0.051277H105.887C104.962 0.051277 104.255 0.102554 103.712 0.256384C103.168 0.410214 102.678 0.615321 102.406 0.871705C102.026 1.17937 101.808 1.43575 101.645 1.84596C101.482 2.2049 101.319 2.66639 101.21 3.02533L99.7414 9.22982H99.0888V0H97.0766C95.445 0 94.6837 0.205107 93.9223 0.666598C93.2153 1.12809 92.8346 1.89724 92.8346 2.92278L92.7802 21.4337ZM112.903 21.4337H123.616C125.248 21.4337 126.444 21.2286 127.151 20.7671C127.858 20.3056 128.239 19.5364 128.239 18.5109V0.102553H117.525C115.894 0.102553 114.697 0.307661 113.99 0.769152C113.283 1.23064 112.903 1.99979 112.903 3.02533V21.4337ZM122.094 17.5879C122.094 17.9469 121.93 18.152 121.604 18.2033C121.278 18.2545 120.68 18.3058 120.571 18.3058C120.353 18.3058 119.701 18.2545 119.537 18.152C119.32 18.0494 119.157 17.8443 119.157 17.6392V3.89703C119.157 3.69193 119.266 3.48682 119.483 3.38427C119.646 3.28171 120.244 3.17916 120.571 3.17916C120.897 3.17916 121.55 3.23044 121.713 3.38427C121.876 3.5381 122.039 3.69193 122.039 3.89703L122.094 17.5879ZM146.839 12.5628L142.542 0.051277H138.572C136.941 0.051277 135.744 0.256384 135.037 0.717875C134.33 1.17937 133.949 1.94852 133.949 2.97405V21.3311H135.962C137.593 21.3311 138.355 21.126 139.116 20.6645C139.823 20.203 140.204 19.4339 140.204 18.4084V7.99918H140.856L144.282 18.2545H145.751C146.675 18.2545 147.382 18.2033 147.926 18.0494C148.47 17.8956 148.96 17.6905 149.231 17.4341C149.612 17.1264 149.83 16.8701 149.993 16.4598C150.156 16.1009 150.21 15.6394 150.428 15.2805L153.093 7.99918H153.745V21.4337H155.758C157.389 21.4337 158.151 21.2286 158.912 20.7671C159.619 20.3056 160 19.5364 160 18.5109V0.051277H155.105C154.18 0.051277 153.473 0.102554 152.93 0.256384C152.386 0.410214 151.951 0.615321 151.624 0.871705C151.298 1.17937 151.081 1.43575 150.917 1.84596C150.754 2.2049 150.591 2.66639 150.428 3.02533L146.839 12.5628Z" fill="#277E89"/>
<path fill-rule="evenodd" clip-rule="evenodd" d="M127.098 56.7125H129.11C130.742 56.7125 131.449 56.5074 132.265 56.0459C132.972 55.5844 133.352 54.8153 133.352 53.7897L133.407 38.5605H134.603C135.637 38.5605 136.616 38.4067 137.214 37.9965C137.812 37.5863 138.138 36.2531 138.084 35.4326H125.739C124.76 35.4326 123.944 35.5865 123.346 35.9967C122.747 36.4069 122.421 37.7401 122.421 38.5605H127.153L127.098 56.7125ZM144.393 56.7125H146.405C148.091 56.7125 148.852 56.5074 149.613 56.0459C150.375 55.5844 150.701 54.8153 150.701 53.7897V49.5337H155.215C156.847 49.5337 157.989 49.3286 158.75 48.8671C159.457 48.4057 159.838 47.6365 159.838 46.611V35.4326H148.689C147.057 35.4326 146.296 35.6377 145.535 36.0992C144.828 36.5607 144.447 37.3299 144.447 38.3554L144.393 56.7125ZM150.701 46.3033V38.458H152.387C152.713 38.458 152.985 38.5092 153.257 38.6631C153.475 38.8169 153.692 39.1246 153.692 39.5348V45.2265C153.692 45.6367 153.529 45.8931 153.257 46.0982C153.04 46.252 152.713 46.3033 152.496 46.3033H150.701ZM79.2398 56.7125H89.736C90.7149 56.7125 91.5307 56.5587 92.1289 56.1484C92.7272 55.7382 93.0535 54.405 92.9991 53.5846H85.4396V47.0212H89.4097C90.3886 47.0212 91.2044 46.8161 91.8026 46.4571C92.4008 46.0469 92.7272 44.7137 92.6728 43.8933H85.3852V38.5092H89.3553C90.3886 38.5092 91.15 38.3041 91.8026 37.9452C92.4008 37.535 92.7272 36.2018 92.6728 35.3814H83.8081C82.1765 35.3814 80.9801 35.5865 80.2731 36.048C79.5661 36.5094 79.1854 37.2786 79.1854 38.3041L79.2398 56.7125ZM54.7123 56.7125H65.4261V59.8917H66.7313C68.3628 59.8917 69.5593 59.6865 70.2663 59.2251C70.9733 58.7636 71.354 57.9944 71.354 56.9689V53.6359H70.0488L70.1031 35.4326H68.0909C66.4594 35.4326 65.6436 35.6377 64.8822 36.0992C64.1752 36.5607 63.7945 37.3299 63.7945 38.3554V53.5846H60.9665V35.3301H58.8999C57.2684 35.3301 56.4526 35.5352 55.6912 35.9967C54.9842 36.4582 54.6035 37.2273 54.6035 38.2529L54.7123 56.7125ZM100.45 56.7125H102.462C104.094 56.7125 104.909 56.5074 105.671 56.0459C106.432 55.5844 106.758 54.8153 106.758 53.7897V47.1237H109.641V56.7125H111.653C113.285 56.7125 113.992 56.5074 114.807 56.0459C115.514 55.5844 115.895 54.8153 115.895 53.7897V35.3814H114.372C112.686 35.3814 111.49 35.5865 110.728 36.048C110.021 36.5094 109.641 37.2786 109.641 38.3041V43.8933H106.704V35.3301H104.692C103.06 35.3301 102.244 35.5352 101.483 35.9967C100.722 36.4582 100.395 37.2273 100.395 38.2529L100.45 56.7125Z" fill="#277E89"/>
<path fill-rule="evenodd" clip-rule="evenodd" d="M155.486 29.997C156.519 29.997 157.77 29.7919 158.422 29.433C159.021 29.0228 159.891 27.6896 159.836 26.8691H58.8442C57.8652 26.8691 56.6688 27.023 56.0162 27.4332C55.4179 27.8434 54.7109 29.1766 54.7109 29.997H59.4424H155.486Z" fill="#277E89"/>
</svg>
